<?xml version="1.0" encoding="utf-8"?>
<!-- Generator: Adobe Illustrator 12.0.0, SVG Export Plug-In . SVG Version: 6.00 Build 51448)  -->
<!DOCTYPE svg PUBLIC "-//W3C//DTD SVG 1.1//EN" "http://www.w3.org/Graphics/SVG/1.1/DTD/svg11.dtd" [
	<!ENTITY ns_svg "http://www.w3.org/2000/svg">
	<!ENTITY ns_xlink "http://www.w3.org/1999/xlink">
]>
<svg  version="1.1" id="Layer_1" xmlns="&ns_svg;" xmlns:xlink="&ns_xlink;" width="269.9" height="244" viewBox="0 0 269.9 244"
	 style="overflow:visible;enable-background:new 0 0 269.9 244;" xml:space="preserve">
<style type="text/css">
<![CDATA[
	.left.st0{fill:red;}
	.st1{fill:#FFFFFF;}
]]>
</style>
<path class="st0" d="M51,192.6c-33.3-36.2-26.1-76.8-26.1-76.8s-34.1,19.6-22.5,55.1S129.2,244,129.2,244S84.3,228.8,51,192.6z"/>
<path class="st0" d="M215.5,41.3l13,97.1c0,0,31.8-11.7,40.6-44.9C282.1,34.8,140.8,0,140.8,0L215.5,41.3z"/>
<path class="st1" d="M248.1,120.5c0,61.8-50.1,112-112,112c-61.8,0-112-50.1-112-112c0-61.8,50.1-112,112-112
	C197.9,8.5,248.1,58.6,248.1,120.5z"/>
</svg>
